<?xml version="1.0" encoding="UTF-8" standalone="no"?>
<!-- Created with Inkscape (http://www.inkscape.org/) -->

<svg
   width="33.612667mm"
   height="30.480068mm"
   viewBox="0 0 33.612667 30.480068"
   version="1.1"
   id="svg1"
   xml:space="preserve"
   xmlns="http://www.w3.org/2000/svg"
   xmlns:svg="http://www.w3.org/2000/svg"><defs
     id="defs1" /><g
     id="layer1"
     transform="translate(-97.038422,-141.96432)"><path
       style="fill:#5934b1;stroke:none"
       d="m 112.53234,141.96432 0.0847,1.10067 c -0.42357,-0.42357 -0.80639,-0.96829 -1.43933,-1.016 l 0.0847,1.69333 h 0.42333 l -0.0847,-1.10066 c 0.39277,0.39276 0.82797,1.06595 1.43934,0.93133 l -0.16934,-1.60867 h -0.33866 m 2.032,0 c -0.0609,0.48161 -0.37513,1.47375 0.16933,1.69334 l 0.0847,-1.10067 h 0.0847 l 0.42334,0.84667 h 0.16933 l 0.508,-0.762 h 0.0847 l -0.0847,1.10066 h 0.33867 l 0.16933,-1.60866 c -0.53184,-0.0591 -0.75542,0.32508 -1.10067,0.67733 -0.18219,-0.43526 -0.33766,-0.80645 -0.84666,-0.84667 m -4.74134,0.33867 -0.254,1.778 h 0.33867 c 0.12703,-0.7987 0.67552,-0.29278 1.18533,-0.254 l -0.93133,-1.60867 -0.33867,0.0847 m 7.19667,-0.0847 c -0.0859,0.44272 -0.30772,1.06787 -0.10649,1.50499 0.17449,0.37902 0.79129,0.44103 1.06729,0.15163 0.31249,-0.32766 0.3751,-0.97214 0.39387,-1.40262 h -0.33867 c -0.0233,0.17274 -0.0535,0.33897 -0.0958,0.5084 -0.0686,0.27505 -0.45896,1.07792 -0.69648,0.41758 -0.16087,-0.44725 0.36029,-0.94443 -0.22375,-1.17998 m -9.48267,0.762 0.0847,0.33867 0.59267,-0.254 0.33866,1.35467 0.42334,-0.0847 -0.42334,-1.43933 0.508,0.0847 c 0.11431,-0.74579 -1.16083,-0.11817 -1.524,0 m 11.34534,-0.33866 -0.508,1.60866 c 0.51193,0.0775 0.58367,-0.5265 0.67733,-0.93133 h 0.0847 c 0.0764,0.32248 0.28238,1.29874 0.67726,1.36133 0.39809,0.0631 0.64873,-1.24453 0.6774,-1.53066 h -0.33866 l -0.254,1.016 h -0.0847 c -0.14048,-0.5928 -0.32971,-1.28074 -0.93133,-1.524 m -8.72067,0.16933 0.16933,0.33867 -0.33866,0.0847 0.16933,-0.42333 m -3.21733,0.42333 c 0.13101,0.45831 0.34847,1.52755 0.93133,1.43934 -0.15302,-0.45233 -0.34849,-1.5276 -0.93133,-1.43934 m -1.69334,0.67734 0.16934,0.42333 h 0.0847 l 0.42334,-0.33867 c 0.18379,0.44205 0.34654,1.2365 0.93133,1.10067 l -0.59267,-1.35467 0.59267,-0.0847 -0.0847,-0.33867 -1.524,0.59267 m 16.34067,1.10066 c -0.4747,-0.11619 -1.13312,-0.94464 -0.25603,-0.96256 0.20711,-0.004 0.41672,0.19686 0.5947,0.28523 l 0.0847,-0.42333 c -0.18467,-0.11601 -0.37249,-0.24634 -0.59279,-0.2836 -1.70647,-0.28862 -0.59442,2.62548 0.16946,1.38426 m -8.80533,0.0359 c -2.06236,0.2741 -3.90655,0.89738 -5.588,2.15652 -6.00262,4.49503 -6.05258,14.06653 0.254,18.35242 1.08012,0.73404 2.28773,1.30433 3.556,1.62702 1.24837,0.31763 2.60894,0.47041 3.89466,0.3111 1.9193,-0.23782 3.75731,-0.76586 5.334,-1.92212 3.2807,-2.40589 5.20234,-6.31467 4.81163,-10.40087 -0.56923,-5.95324 -6.17921,-10.93255 -12.26229,-10.12407 m 10.58333,0.0487 c 0.55271,0.99277 1.33177,2.23728 2.54,2.45533 -0.28949,-1.20754 -1.30091,-2.23445 -2.54,-2.45533 m -21.67467,2.794 c 1.06174,-0.45822 2.28582,-1.52962 2.70934,-2.62467 -1.30267,0.23221 -2.47561,1.30946 -2.70934,2.62467 m -0.16933,-1.60867 c -1.678307,1.26817 -1.693327,2.85589 -1.693327,4.826 0.379207,-0.20213 0.653027,-0.56108 1.015997,-0.80061 1.02583,-0.67696 2.07709,-1.25923 2.62466,-2.41672 -0.88528,0.5512 -2.18939,1.12717 -2.62466,2.11667 h -0.16934 c -0.40923,-1.32321 0.8502,-2.47287 0.84667,-3.72534 m 11.176,0.0242 c 1.16086,-0.13883 2.42271,-0.0489 3.556,0.22004 6.963,1.65254 9.66729,10.1247 5.6236,15.75779 -0.73727,1.02707 -1.66063,1.9122 -2.74493,2.5726 -1.24078,0.75571 -2.62701,1.20602 -4.064,1.3825 -8.518,1.04612 -14.24718,-8.82471 -9.39467,-15.80843 0.78264,-1.12637 1.87529,-2.05465 3.04467,-2.7601 1.22755,-0.74053 2.5548,-1.19403 3.97933,-1.3644 m 13.63133,-0.0242 c 0.43101,1.03661 1.00209,2.34929 1.10067,3.47134 l -3.048,-1.94734 c 0.41143,1.39822 2.41688,2.50273 3.556,3.302 0,-1.86174 0.0622,-3.64899 -1.60867,-4.826 m -18.542,11.76867 c 0.92975,-0.16584 1.72609,-0.87985 2.37067,-1.524 -0.0102,1.22075 -1.3845,1.53937 -1.94733,2.54 l 5.334,-0.67733 c -0.0603,0.3694 -0.23073,0.46721 -0.59267,0.508 0.41198,1.54055 1.33331,2.87025 2.45533,3.979 0.47298,0.46738 1.02928,1.02962 1.69334,1.18566 l -0.0847,-2.032 0.33867,0.16934 c 0.95178,-1.81349 0.84743,-4.35904 0.84666,-6.35 -2e-4,-0.51588 -0.34455,-2.50249 -1.10066,-1.27 l -0.97308,-0.93258 0.29149,-1.01476 1.52825,-2.70933 c -3.07854,-1.61981 -7.66726,-1.6479 -9.32476,2.032 -0.87235,1.93673 -0.56286,4.04813 -0.83524,6.096 m -8.889997,-8.97467 c -0.57952,1.39196 -1.12506,2.50774 -0.79002,4.064 0.14678,0.68187 0.56096,1.2566 0.70536,1.94734 1.274717,-0.93822 2.437827,-2.53376 2.878657,-4.064 -1.23551,0.47524 -1.808817,1.69507 -2.793997,2.45533 l 0.067,-1.69333 -0.12412,-1.35467 0.0572,-1.35467 m 29.802667,0 c 0.10849,1.36312 0.23664,2.96841 -0.0847,4.318 l -2.62466,-2.62466 2.54,4.14866 c 0.42953,-0.23044 0.5615,-0.75735 0.75017,-1.18533 0.59779,-1.356 0.5438,-3.54389 -0.58084,-4.65667 m -11.43,1.016 c -0.1418,0.60372 -0.62395,1.38304 -1.10067,1.778 l 0.67734,-1.60866 -3.556,-0.84667 c 1.1825,-0.4962 2.90553,0.19163 3.97933,0.67733 m -1.60867,2.96334 -0.16933,0.508 c -0.25704,-0.0847 -0.29585,-0.15773 -0.254,-0.42334 l -1.35467,-0.33866 c 0.54868,-0.22972 1.24547,0.0808 1.778,0.254 m 1.016,2.45533 h -0.0847 c -1.39769,-1.39755 -2.56306,-1.8363 -4.48734,-1.43933 0.91986,-0.92879 2.65281,-0.50268 3.64067,0.0742 0.4726,0.27599 1.20549,0.76688 0.93133,1.36512 m 13.54667,-1.94733 -1.35467,3.89466 -0.76186,-1.524 -1.27014,-2.032 h -0.0847 c 0.005,1.94265 0.80255,3.64387 1.69333,5.334 h 0.16933 c 0.39901,-0.68785 0.9934,-1.20479 1.32814,-1.94733 0.52605,-1.1669 0.44986,-2.47869 0.44986,-3.72533 h -0.16933 m -32.935327,0.0847 c 0,1.91942 -0.075,4.70753 1.94733,5.75734 0.7509,-1.694 1.695877,-3.25726 1.777997,-5.16467 h -0.0847 c -0.55565,0.81684 -1.194787,1.60912 -1.550777,2.54 -0.0697,0.18235 -0.24233,0.83581 -0.5263,0.78147 -0.30376,-0.0581 -0.28548,-0.89098 -0.33709,-1.12014 -0.17757,-0.78834 -0.72033,-2.17858 -1.22649,-2.794 m 20.319997,1.43934 -0.0847,3.81 h -0.0847 l -0.0847,-2.96334 c -2.1473,1.61808 -4.17127,1.38612 -6.68867,1.016 v -0.254 c 2.5803,0.0214 4.9301,0.81054 6.77333,-1.60866 h 0.16934 m -1.60867,2.11666 c 0.35271,0.25021 0.53793,0.24742 0.93133,0.0847 l 0.16934,1.27 h -0.0847 c -0.2679,-0.42785 -0.33763,-0.64622 -0.0847,-1.10067 l -0.42333,0.42334 h -0.0847 l -0.33866,-0.33867 h -0.0847 l -0.254,1.86267 h -0.0847 c -0.0125,-1.05636 -0.81499,-1.37156 0.33867,-2.20134 m -4.318,0.508 v 0.0847 l -1.35467,0.254 c 0.25243,-0.45779 0.88962,-0.41541 1.35467,-0.33867 m 15.07067,-0.0847 c -0.0135,0.65229 -0.1936,1.29313 -0.166,1.94733 0.0589,1.39697 0.35764,2.58411 -0.003,3.97933 2.02351,-0.83867 3.6135,-2.84312 3.97934,-4.99533 h -0.0847 l -1.48886,1.3919 -1.47447,1.82543 c -0.096,-1.41443 0.12307,-2.90807 -0.762,-4.14866 m -25.82334,0.254 -0.83197,2.37066 -0.0147,1.778 -1.459327,-1.947 -1.50401,-1.69366 h -0.0847 c 0.0962,2.20685 2.05677,4.50916 3.979327,5.41866 -0.0271,-0.6306 -0.21882,-1.22339 -0.1549,-1.86266 0.12489,-1.24898 0.59513,-2.8472 0.0702,-4.064 m 29.63334,0.508 0.0847,0.0847 -0.0847,-0.0847 m -14.30867,0.59266 0.16933,3.81 c -0.75083,-0.37401 -1.36317,-1.0569 -1.778,-1.778 l 1.43934,1.016 -0.0847,-2.45533 -0.33867,0.0847 0.42334,-0.67734 h 0.16933 m 1.18533,0 -0.0847,0.0847 0.0847,-0.0847 m 8.128,2.20134 -1.60866,5.50333 c 2.67947,-0.002 5.22041,-1.55879 5.75733,-4.318 -1.09144,0.9254 -2.22974,1.61452 -3.38667,2.46853 -0.18469,0.13633 -0.92467,0.96747 -1.15502,0.75129 -0.23861,-0.22395 0.15123,-0.87707 0.2474,-1.10315 0.44518,-1.04646 0.31496,-2.18766 0.31496,-3.302 h -0.16934 m -23.45266,0.16933 c -0.46613,1.65873 0.19804,3.04603 0.33866,4.65667 l -1.35473,-1.04939 -1.939687,-1.14554 -1.27758,-1.27641 c 1.00762,2.7316 3.077627,4.09316 5.926667,4.318 -0.68103,-1.63796 -0.41561,-4.18661 -1.69333,-5.50333 m 2.20133,2.96333 c 0.22337,1.51816 0.8688,2.81542 1.94733,3.89467 l -1.778,-0.31659 -2.20133,-0.17351 -1.94733,-1.0339 c 0.21205,0.41096 0.52862,0.76836 0.85,1.10034 2.09969,2.16904 4.51342,1.10099 7.10866,1.10099 -0.35718,-0.42087 -0.87899,-0.65016 -1.21839,-1.10099 -0.92207,-1.2248 -1.41299,-2.57937 -2.76094,-3.47101 m 19.13467,0 c -0.517,0.517 -1.09401,1.01205 -1.5206,1.60867 -0.77016,1.07711 -1.20295,2.15853 -2.37407,2.87867 v 0.0847 c 2.64503,-0.007 6.41222,1.12124 7.78933,-2.20133 l -1.86266,1.00718 -2.20134,0.20572 -1.60866,0.3111 c 0.80096,-0.8184 1.24351,-1.71438 1.57221,-2.794 0.11147,-0.36611 0.35245,-0.72108 0.20579,-1.10067 m -20.066,5.50334 c 1.14146,1.53637 4.48502,1.63158 6.096,0.94211 1.22138,-0.52273 2.31753,-1.53129 3.72533,-1.19611 l -3.64067,2.37066 c 0.0618,0.20096 0.15699,0.41582 0.41059,0.27504 0.38919,-0.21604 0.72518,-0.71826 1.06468,-1.01705 0.69199,-0.60901 1.82607,-1.31861 2.75807,-1.44122 1.49283,-0.1964 3.50607,1.61462 4.318,2.69123 h 0.16933 c 0.11435,-0.51502 -0.31579,-0.73842 -0.67733,-1.03716 -0.7799,-0.64444 -1.6803,-1.48873 -2.70934,-1.67217 v -0.0847 c 1.40077,-0.26006 2.27912,0.7129 3.47134,1.24047 1.28136,0.56703 3.08848,0.27417 4.40266,-0.0353 0.59696,-0.14057 1.19736,-0.29883 1.60867,-0.78186 -0.83798,0.11284 -1.59325,0.33159 -2.45533,0.2393 -1.53735,-0.16459 -2.96272,-0.89534 -4.48734,-1.13347 -1.23377,-0.19269 -2.4211,0.23832 -3.64066,0.25283 -0.9967,0.0119 -1.96717,-0.35064 -2.96334,-0.28242 -2.5721,0.17614 -4.91316,1.72453 -7.45066,0.66976 z"
       id="path6" /></g></svg>
